<svg width="1024" height="1024" viewBox="0 0 1024 1024" fill="none" xmlns="http://www.w3.org/2000/svg">
<path fill-rule="evenodd" clip-rule="evenodd" d="M529.111 330.28C531.725 331.181 533.993 332.876 535.598 335.129C537.203 337.381 538.064 340.078 538.063 342.844V488.937H617.75C620.242 488.938 622.683 489.639 624.796 490.962C626.908 492.284 628.605 494.174 629.694 496.415C630.783 498.657 631.219 501.159 630.953 503.637C630.687 506.115 629.729 508.467 628.189 510.427L482.095 696.364C480.388 698.534 478.047 700.119 475.398 700.897C472.749 701.674 469.923 701.607 467.313 700.704C464.704 699.801 462.441 698.108 460.839 695.859C459.237 693.61 458.376 690.917 458.375 688.156V542.063H378.688C376.196 542.062 373.754 541.361 371.642 540.038C369.53 538.716 367.832 536.826 366.744 534.585C365.655 532.343 365.218 529.841 365.485 527.363C365.751 524.885 366.708 522.533 368.248 520.573L514.342 334.636C516.046 332.466 518.384 330.88 521.031 330.099C523.678 329.318 526.502 329.382 529.111 330.28Z" fill="#FFC107" style="fill:#FFC107;fill:color(display-p3 1.0000 0.7569 0.0275);fill-opacity:1;"/>
</svg>
